<?xml version="1.0" encoding="utf-8"?>
<!-- Generator: Adobe Illustrator 25.2.0, SVG Export Plug-In . SVG Version: 6.00 Build 0)  -->
<svg version="1.1" id="Layer_2" xmlns="http://www.w3.org/2000/svg" xmlns:xlink="http://www.w3.org/1999/xlink" x="0px" y="0px"
	 viewBox="0 0 1920 1080" style="enable-background:new 0 0 1920 1080;" xml:space="preserve">
<style type="text/css">
	.st0{fill:#2D292A;}
	.st1{fill:#FD7028;}
	.st2{fill:url(#SVGID_1_);}
	.st3{fill:#EB6E04;}
	.st4{opacity:0.7;fill:url(#SVGID_2_);}
	.st5{opacity:0.7;fill:url(#SVGID_3_);}
</style>
<g>
	<path class="st0" d="M950.89,169.02L815.27,418.8c-28.83-66.82-59.37-128.93-93.07-182.31c-29.48-46.7-80.11-75.19-134.71-75.91
		l-479.38-6.33c18.21,53.37,31.53,110.17,128.35,108.28H529.5c56.31,0.5,108.59,19.23,145.64,107.11
		c14.26,33.81,29.19,67.33,45.38,100.23l88.69,180.24l141.67-248.55V169.02z"/>
	<path class="st1" d="M567.04,290.84c37.34-1.77,73.6,43.95,108.98,127.97c-32.8-17.12-69.09-25.4-108.98-24.61H317.6
		c-69.94-1.04-88.89-53.38-110.19-103.36H567.04z"/>
	<path class="st0" d="M950.89,445.87v228.86L811.64,925.74L645.74,603.37c-33.92-81.11-109.22-92.34-197.94-80.88
		c-8.28,1.07-16.63,1.49-24.97,1.08c-70.39-3.48-84.43-57.13-105.24-104.76h276.19c8.17,0,16.35,0.51,24.43,1.76
		c35.11,5.43,67.53,22.4,91.37,76.12c3.58,8.07,7.25,16.11,11.16,24.01L808,696.88L950.89,445.87z"/>
	<g>
		<path class="st0" d="M969.11,169.02l135.62,249.78c28.83-66.82,59.37-128.93,93.07-182.31c29.48-46.7,80.11-75.19,134.71-75.91
			l479.38-6.33c-18.21,53.37-31.53,110.17-128.35,108.28H1390.5c-56.31,0.5-108.59,19.23-145.64,107.11
			c-14.26,33.81-29.19,67.33-45.38,100.23l-88.69,180.24L969.11,401.58V169.02z"/>
		<path class="st1" d="M1352.96,290.84c-37.34-1.77-73.6,43.95-108.98,127.97c32.8-17.12,69.09-25.4,108.98-24.61h249.44
			c69.94-1.04,88.89-53.38,110.19-103.36H1352.96z"/>
		<path class="st0" d="M969.11,445.87v228.86l139.25,251.01l165.89-322.38c33.92-81.11,109.22-92.34,197.94-80.88
			c8.28,1.07,16.63,1.49,24.97,1.08c70.39-3.48,84.43-57.13,105.24-104.76h-276.19c-8.17,0-16.35,0.51-24.43,1.76
			c-35.11,5.43-67.53,22.4-91.37,76.12c-3.58,8.07-7.25,16.11-11.16,24.01L1112,696.88L969.11,445.87z"/>
	</g>
</g>
</svg>
