<?xml version="1.0" encoding="utf-8"?>
<!-- Generator: Adobe Illustrator 25.2.0, SVG Export Plug-In . SVG Version: 6.00 Build 0)  -->
<svg version="1.1" id="Layer_2" xmlns="http://www.w3.org/2000/svg" xmlns:xlink="http://www.w3.org/1999/xlink" x="0px" y="0px"
	 viewBox="0 0 1920 1080" style="enable-background:new 0 0 1920 1080;" xml:space="preserve">
<style type="text/css">
	.st0{fill:#ffffff;}
	.st1{fill:#FD7028;}
	.st2{fill:url(#SVGID_1_);}
	.st3{fill:#EB6E04;}
	.st4{opacity:0.7;fill:url(#SVGID_2_);}
	.st5{opacity:0.7;fill:url(#SVGID_3_);}
</style>
<path class="st0" d="M516.48,351.44L441.9,488.81c-15.86-36.75-32.65-70.9-51.18-100.26c-16.21-25.68-44.06-41.35-74.08-41.74
	L53,343.32c10.02,29.35,17.34,60.59,70.59,59.55h161.15c30.97,0.27,59.72,10.57,80.1,58.91c7.84,18.6,16.05,37.03,24.96,55.12
	l48.77,99.12l77.91-136.69V351.44z"/>
<path class="st1" d="M305.38,418.43c20.54-0.97,40.48,24.17,59.93,70.37c-18.04-9.41-38-13.97-59.93-13.53H168.2
	c-38.46-0.57-48.89-29.35-60.6-56.84H305.38z"/>
<path class="st0" d="M516.48,503.69v125.86L439.9,767.6l-91.23-177.29c-18.66-44.6-60.06-50.78-108.86-44.48
	c-4.55,0.59-9.15,0.82-13.73,0.59c-38.71-1.92-46.43-31.42-57.88-57.61h151.89c4.5,0,8.99,0.28,13.44,0.97
	c19.31,2.99,37.14,12.32,50.25,41.86c1.97,4.44,3.99,8.86,6.14,13.21l47.98,96.89L516.48,503.69z"/>
<g>
	<path class="st0" d="M585.88,517.95c0,0.74,0,1.11,0.36,1.11s0.73-0.37,1.09-0.74l46.19-74.68h54.19l-55.29,89.83
		c-0.36,1.11-0.73,1.48-0.73,1.85c0,0.37,0.36,1.11,0.73,2.22l56.38,90.94h-55.65c-20.37-32.9-31.64-52.13-38.55-62.85
		c-4-6.28-6.55-10.72-8-13.31c-0.36,0-0.73,0.74-0.73,1.85v74.31h-49.47V350.85h49.47V517.95z"/>
	<path class="st0" d="M731.72,377.84c13.09,0,24.73,11.83,24.73,25.14c0,14.42-11.64,25.51-24.73,25.51
		c-14.19,0-25.1-11.09-25.1-25.51C706.63,389.67,717.54,377.84,731.72,377.84z M706.63,443.27h49.47v185.21h-49.47V443.27z"/>
	<path class="st0" d="M788.46,443.64h46.19v8.13c8.73-7.39,22.55-11.09,35.28-11.09h25.46v50.65h-25.82
		c-17.1,0-30.55,12.2-31.64,29.58v107.58h-49.47V443.64z"/>
	<path class="st0" d="M1072.89,628.49l-36.01-102.77l-16.37,49.91c-8.73,25.51-16.73,50.65-17.82,52.87H960.5l-49.1-184.84h51.65
		c22.55,92.05,24.73,107.95,25.82,107.95c0.36,0,0.73-0.37,1.09-0.74l28.73-106.84h38.55c26.19,88.73,29.1,105.73,30.19,105.73
		c0.36,0,0.73-0.37,1.09-0.74l23.64-105.36h51.65l-49.1,184.84H1072.89z"/>
	<path class="st0" d="M1363.14,443.64v184.84h-45.1v-10.72c-14.55,9.24-31.28,13.68-49.1,13.68c-51.29,0-93.84-43.25-93.84-95.38
		s42.56-95.38,93.84-95.38c17.82,0,34.92,5.18,49.1,14.05v-11.09H1363.14z M1268.93,581.91c25.1,0,44.74-19.96,44.74-45.84
		s-19.64-45.84-44.74-45.84c-25.1,0-44.74,19.96-44.74,45.84S1243.84,581.91,1268.93,581.91z"/>
</g>
<g>
	<path class="st1" d="M1384.35,349.37h52.01c0,95.75,0,120.15,0.36,120.15c0.36,0,0.73-0.37,1.09-0.74l73.11-119.41h59.29
		l-82.2,136.42c-0.36,0.74-0.73,1.48-0.73,2.22c0,1.11,0.36,1.85,0.73,2.22l83.66,136.42h-61.11
		c-60.38-99.08-74.2-121.63-74.2-120.52v120.52h-52.01V349.37z"/>
	<path class="st1" d="M1707.7,346.41c77.11,0,139.31,63.22,139.31,141.59s-62.2,141.59-139.31,141.59
		c-77.11,0-139.31-63.22-139.31-141.59S1630.59,346.41,1707.7,346.41z M1707.7,576.73c48.01,0,87.29-39.93,87.29-88.73
		c0-48.8-39.28-88.73-87.29-88.73c-48.01,0-87.29,39.93-87.29,88.73C1620.4,536.8,1659.69,576.73,1707.7,576.73z"/>
</g>
</svg>
