<?xml version="1.0" encoding="utf-8"?>
<!-- Generator: Adobe Illustrator 25.2.0, SVG Export Plug-In . SVG Version: 6.00 Build 0)  -->
<svg version="1.1" id="Layer_2" xmlns="http://www.w3.org/2000/svg" xmlns:xlink="http://www.w3.org/1999/xlink" x="0px" y="0px"
	 viewBox="0 0 1920 1080" style="enable-background:new 0 0 1920 1080;" xml:space="preserve">
<style type="text/css">
	.st0{fill:#2D292A;}
	.st1{fill:#FD7028;}
	.st2{fill:url(#SVGID_1_);}
	.st3{fill:#EB6E04;}
	.st4{opacity:0.7;fill:url(#SVGID_2_);}
	.st5{opacity:0.7;fill:url(#SVGID_3_);}
</style>
<g>
	<path class="st0" d="M941.78,169.02L806.16,418.8c-28.83-66.82-59.37-128.93-93.07-182.31c-29.48-46.7-80.11-75.19-134.71-75.91
		L99,154.26c18.21,53.37,31.53,110.17,128.35,108.28h293.03c56.31,0.5,108.59,19.23,145.64,107.11
		c14.26,33.81,29.19,67.33,45.38,100.23l88.69,180.24l141.67-248.55V169.02z"/>
	<path class="st1" d="M557.93,290.84c37.34-1.77,73.6,43.95,108.98,127.97c-32.8-17.12-69.09-25.4-108.98-24.61H308.48
		c-69.94-1.04-88.89-53.38-110.19-103.36H557.93z"/>
	<path class="st0" d="M941.78,445.87v228.86L802.52,925.74L636.63,603.37c-33.92-81.11-109.22-92.34-197.94-80.88
		c-8.28,1.07-16.63,1.49-24.97,1.08c-70.39-3.48-84.43-57.13-105.24-104.76h276.19c8.17,0,16.35,0.51,24.43,1.76
		c35.11,5.43,67.53,22.4,91.37,76.12c3.58,8.07,7.25,16.11,11.16,24.01l87.25,176.18L941.78,445.87z"/>
	<path class="st1" d="M979.73,165.25h94.58c0,174.11,0,218.48,0.66,218.48c0.66,0,1.32-0.67,1.98-1.34l132.94-217.13h107.8
		l-149.47,248.05c-0.66,1.35-1.32,2.69-1.32,4.03c0,2.02,0.66,3.36,1.32,4.03l152.12,248.05h-111.11
		c-109.79-180.16-134.92-221.17-134.92-219.15v219.15h-94.58V165.25z"/>
	<path class="st1" d="M1567.69,159.88c140.21,0,253.31,114.95,253.31,257.46c0,142.51-113.1,257.46-253.31,257.46
		c-140.21,0-253.31-114.95-253.31-257.46C1314.38,274.83,1427.48,159.88,1567.69,159.88z M1567.69,578.68
		c87.3,0,158.73-72.6,158.73-161.34c0-88.73-71.43-161.34-158.73-161.34c-87.3,0-158.73,72.6-158.73,161.34
		C1408.96,506.08,1480.39,578.68,1567.69,578.68z"/>
</g>
</svg>
